<?xml version="1.0" encoding="utf-8"?>
<!-- Generator: Adobe Illustrator 25.0.0, SVG Export Plug-In . SVG Version: 6.00 Build 0)  -->
<svg version="1.1" id="レイヤー_1" xmlns="http://www.w3.org/2000/svg" xmlns:xlink="http://www.w3.org/1999/xlink" x="0px"
	 y="0px" viewBox="0 0 189.7 155.5" style="enable-background:new 0 0 189.7 155.5;" xml:space="preserve">
<style type="text/css">
	.st0{fill:none;stroke:#000000;stroke-width:0.75;stroke-linecap:round;stroke-linejoin:round;}
</style>
<path class="st0" d="M24.8,23.8c2.2-0.3,4.2-1.4,6.2-2.2c1.7-0.7,3.5-1.3,5.3-1.8c0.1,0,0.2-0.2,0.3-0.1c1.8,0.8,2.6-0.8,3.5-1.7
	c2.2-2.2,4.9-3.8,7.8-4.7c2.1-0.5,4.3-0.5,6.3,0.1c3.3,0.7,6.5,1.8,9.6,3.3c1.9,0.9,3.9,0.9,5.8,1.5c3.4,1.1,6.8,2,9.9,4
	c0.8,0.4,1.6,0.8,2.4,1.1c1,0.6,1.8,1.2,2.6,2c3.8,3,7.2,6.5,10.2,10.4c3.2,4,5.8,8.6,7.6,13.4c1.9,5.9,2.4,12.2,1.2,18.3
	c-0.5,3.8-1.8,7.4-3.8,10.7c-1.6,2.6-3.7,4.8-6.1,6.5"/>
<path class="st0" d="M188.7,154.5c-1.1-0.5-2.2-1.1-3.2-1.7c-2-1.1-4.2-1.2-6.4-1.6c-1-0.1-2-0.4-3-0.6c-4.9-1.4-9.8-3.1-14.8-4.4
	c-4-1.1-8.1-2-12.1-2.7c-1-0.1-1.9-0.6-2.5-1.4c-1.5-1.7-2.6-3.8-4.6-4.9c-1.3-0.7-1.8-2-2.7-3c-1.3-1.4-2.7-2.9-4-4.3
	c-0.1-0.1-0.4-0.2-0.6-0.3"/>
<path class="st0" d="M14.2,35.2c-1.8,1.5-3.4,3.3-4.5,5.3c-2.3,3.7-4.1,7.7-5.3,11.9c-0.5,1.4-0.8,2.8-0.8,4.3
	c0.2,1.7-0.1,3.4,0.1,5c0.1,0.7,0.1,1.4-0.1,2c-0.3,0.7,0.2,1.4,0.3,2.1c0.2,2.3,0.6,4.5,1.2,6.7c0.4,1,0.7,2.1,1,3.1"/>
<path class="st0" d="M44.5,110.8c-1.2-0.1-2.4,0.2-3.5,0.8c1.2,2.7,3.7,4.7,6.6,5.2c2.1,0.3,4.4,0.5,6.4-0.6c2.3-1.1,4.3-2.8,5.6-5
	c0.5-0.9,0.3-1.5-0.8-1.5c-1.9-0.1-3.8,0-5.7,0.1c-2.4,0.1-4.8,0.4-7.1,0.6c-0.5,0.1-1,0.2-1.4,0.4"/>
<path class="st0" d="M55.2,57.8c-1.6,1.5-2.1,3.5-2.6,5.6c-1.1,4.7-2.1,9.3-3,14.1c-0.1,0.6-0.1,1.3-0.8,1.8
	c-1.6-0.9-3.1-2.2-4.2-3.7c-3.6-4-5.9-8.8-7.8-13.8c-0.1-0.3-0.1-0.7-0.1-1"/>
<path class="st0" d="M104.4,87.1c0.5,0.4,0.8,1,0.9,1.7c1,3,1.6,6.1,3.2,8.8c2.6,4.2,5,8.6,8.2,12.4c2.7,3.3,5.2,6.7,8.2,9.7
	s5.9,5.9,8.9,8.8c0.4,0.5,0.7,1.1,0.7,1.7c0.3,2.1,0.3,4.2,1.7,6c0.7,0.9,1.3,1.5,2.5,0.9c0.5-0.3,1.3,0.2,1.8-0.3"/>
<path class="st0" d="M34.6,22.5c0.1,0.8-0.6,1.2-0.9,1.8c-2.9,4.9-4.9,10.3-5.8,15.9c-0.4,3.7-0.2,7.4,0.4,11c0.2,1.6,0.7,3.3,1,4.9
	c0.1,0.6,0.1,1.1-0.1,1.7c-0.3,0.5,0,1.2,0.5,1.5c0.2,0.1,0.5,0.1,0.7,0.1c1.5-0.1,2.9,0.4,4.4,0.5c1,0.1,1.8,1,2.8,1"/>
<path class="st0" d="M103.1,77.3c0.3,3.2,0.4,6.3,1,9.5c0.2,1.1,0,2.4,0.3,3.6c0.4,1.7,0.8,3.3,1.1,5c0.7,3.6,2.2,7,3.3,10.5
	c1.6,4.9,5.1,8,8.6,11.2c3.3,2.8,6.1,6,8.6,9.5c1.4,2.1,1.8,4.7,2.2,7.2c0.4,1.6,0.6,3.3,0.5,4.9c-0.2,2.1-0.1,4.3-1.1,6.2"/>
<path class="st0" d="M114.9,63.3c-0.2,2.8,0.1,5.7,0.7,8.4c0.7,4,1.9,8,3.4,11.8c1.2,2.9,2.7,5.7,4.4,8.3c1.3,2.1,2.5,4.2,4.5,5.6
	c0.5,0.3,0.2,0.8,0.3,1.2"/>
<path class="st0" d="M49.4,1.1c2.4,1.6,4.5,3.8,6,6.3c0.6,0.8,1.3,1.5,2.3,1.9c2.4,1.4,4.7,1.2,7.2,0.3c0.6-0.2,1.2-0.2,1.8-0.1
	c0.9,0.2,1.9-0.1,2.6-0.8c2-2.1,4.2-4.1,6.5-6c0.8-0.7,1.7-1.2,2.7-1.6"/>
<path class="st0" d="M18.4,125c-1.7,1.8-2.3,4.2-3.2,6.4c-1.2,3.1-2.1,6.3-2.6,9.6c-0.1,1.2-0.1,2.3,0,3.5c0,1.8,0,3.5-0.1,5.3
	c0,1.6,0.3,3.2,0.7,4.8"/>
<path class="st0" d="M61.6,22c0.2,0.8,0.5,1.5,1,2.2c1.8,3.6,3.1,7.4,3.7,11.4c0.5,2.6,0.8,5.2,0.8,7.9c0,2.4-0.2,4.8-0.5,7.3
	c-0.3,1.3-0.6,2.5-1.1,3.8c-0.1,0.3-0.1,0.5-0.1,0.8"/>
<path class="st0" d="M171.5,139.6c-0.5-1.4-0.9-2.8-1.1-4.2c-1.2-4.5-3.7-8.4-7.3-11.4c-3.2-2.8-6.7-5.2-10.4-7.4
	c-0.6-0.4-1-1.2-1.8-1.1"/>
<path class="st0" d="M97.9,128.5c-1.2,0.1-1.2-1.3-2.1-1.6c-0.6,0.2-0.6,0.7-0.4,1.2c1.8,3.5,3.7,7,5.6,10.5
	c1.5,2.8,3.1,5.5,4.7,8.3c0.6,0.9,1,1.8,1.3,2.8l-6,4.8"/>
<path class="st0" d="M79.2,58c0.9,0.7,1.5,1.7,1.8,2.7c1.7,3.7,3,7.5,3.7,11.5c0.6,3.3,1.3,6.8,0.7,10.2"/>
<path class="st0" d="M12.9,1.3C12.8,3.5,13,5.8,13.5,8c0.5,1.7,1.2,3.4,1.9,5c1.4,3,4,4.9,6.2,7.2c1.2,1.1,2.6,1.9,4.2,2.2
	c0.4,0.1,0.9,0.1,0.9,0.8"/>
<path class="st0" d="M119.8,1.1c-0.5,0-0.4,0.5-0.5,0.8c-1.2,2.6-2.7,5-4.6,7.2c-0.5,0.6-0.9,1.3-1.4,2c-1.5,2.3-3.7,3.6-5.9,5
	c-1.4,0.9-3,1.7-4.4,2.6c-1,0.6-2.3,0.9-3,2c-2.6,0.3-4.8,1.9-7.4,2.5c-1.5,0.4-3.1,0.5-4.7,0.3c-1.5-0.2-3.1-0.2-4.6-0.6
	c-0.3-0.1-0.6,0.2-0.9,0.2"/>
<path class="st0" d="M63,79.8c1.2,1.8,2.3,1.9,3.9,0.5c2-1.6,3.2-3.9,3.2-6.5c0-1.4-0.8-2-2.2-1.6c-2.8,0.8-4.5,3.2-4.8,6.6
	c0,0.3-0.1,0.5-0.1,0.8"/>
<path class="st0" d="M29.2,129.7c0,1.4,0.1,2.8,0.2,4.1c0.1,1.1-0.7,1.9-1.3,2.7c-1.7,2.6-4.4,4.4-6.5,6.7c-1.8,2-3.6,4.1-5.2,6.3
	c-1.1,1.5-1.9,3.2-2.2,5"/>
<path class="st0" d="M85.6,111.3c-0.9,0.9-2,1.7-3.2,2.2c-0.4,0.2-0.7,0.5-0.9,0.9c-1.4,3.2-4.3,5.1-6.9,7.1
	c-3.4,2.6-6.9,4.9-10.6,7c-2.5,1.4-5.1,2.7-7.7,3.7c-1.6,0.6-3.3,0.6-4.7,1.6c-1.2-0.5-2.3,0.3-3.7-0.3c-3.1-1.4-5.5-3.7-7.8-5.9
	c-2.8-2.7-6.1-4.8-9.1-7.3c-0.4-0.2-0.7-0.4-1.2-0.5"/>
<path class="st0" d="M100.7,131c1.1,2.3,3.1,3.7,4.9,5.3c3.4,2.9,6.5,6,9.4,9.3c1.2,1.3,2.2,2.8,2.8,4.5c0.1,0.6,0.3,1.2,0.5,1.8"/>
<path class="st0" d="M49.9,136.9c0.2,1.1,0.9,2.1,1.8,2.9c1.4,1.3,2.2,3,3.4,4.5s1.8,3.1,2.8,4.5c1.5,2,4,2.8,6.3,3.7
	c1.6,0.6,3.3,1,4.9,1.3c0.4,0.1,0.9,0.2,1.3-0.2c0.8-0.9,1.8-0.8,2.9-0.8"/>
<path class="st0" d="M78.7,73.3c-0.3-0.4-0.8-0.6-1.2-1c-2.5-2.9-6.3-4.3-10.1-3.8c-1.9,0.3-3.8,1.1-5.3,2.3
	c-0.5,0.4-0.9,0.8-1.4,1.2c-0.6,0.3-0.8,1.1-0.5,1.6c0,0,0.1,0.1,0.1,0.1c0.3,0.4,0.3,1,0,1.4"/>
<path class="st0" d="M60.7,74.3c1-0.1,1.3-1.3,2.2-1.6c0.4-0.2,0.9-0.3,1.4-0.3c-4.2,6.9-3.2,13.2,2.3,19c-1,0.7-2.2-0.2-3.2,0.4"/>
<path class="st0" d="M67.4,86.2c-1.2,0.1-1.1-1.1-1.5-1.7c-0.1-0.2-0.1-0.5-0.2-0.8s-0.3-0.6-0.8-0.5s-0.5,0.4-0.5,0.8
	c-0.1,1.9,2.1,5.1,3.9,5.7c0.3,0.1,0.7,0.1,1,0c1.1-0.5,2.1-1.3,2.9-2.3c0.5-0.7,0.7-1.7,0.3-2.5c-0.1-0.5-0.2-1-0.3-1.5"/>
<path class="st0" d="M88.6,125.8c-0.6,1.4-0.7,2.9-0.3,4.4c0.4,3.1-0.1,6.2-1.6,8.9c-1.6,3.4-3.7,6.5-6.3,9.2
	c-1.2,1.5-2.7,2.7-4.4,3.7"/>
<path class="st0" d="M35.7,75.5c0.6-0.1,0.9,0.3,1.3,0.6c1.3,1,1.3,1,2.6-0.3c-1-2.3-3.1-3.1-5.2-3.8c-3.3-1.3-7.1-0.4-9.5,2.3
	c-1.2,1-2.1,2.3-2.7,3.8c-0.3,0.6-1,1-1.7,0.8c-0.8-0.1-1.6-0.4-2.3-0.5"/>
<path class="st0" d="M26.6,76.6c0,0.5-0.1,1.1-0.4,1.6c-1,2.3-1.2,4.9-0.5,7.4c0.6,2.2,1.1,4.4,2.7,6.2c0.7,0.7,1.4,1.3,2.1,2.1
	c-0.7,0.8-2.2-0.2-2.6,1.1"/>
<path class="st0" d="M34.9,75c1,1.1,1.6,2.5,1.9,3.9c1.3,4.1,0.9,8.6-0.9,12.6c-0.4,0.7-0.8,1.4-1.4,2"/>
<path class="st0" d="M94.3,85.7c1.2-1.5,2.9-2.5,4.8-2.6c0.6-0.1,1.3,0.1,1.6,0.6c0.6,1,1.8,1.8,1.3,3.2c0,0.1,0.1,0.2,0.1,0.3
	c1.1,2.9,0.4,5.8-0.4,8.7c0,0.4-0.2,0.7-0.3,1c-1.6,1.9-0.7,3.6,0,5.5c1.9,4.4,4.1,8.7,6.8,12.7c0.4,0.5,0.8,1,1.3,1.4"/>
<path class="st0" d="M73.7,74c0,0.4,0.1,0.8,0.2,1.2c1.9,5.1,1.2,9.9-1.4,14.5c-0.3,0.5-0.3,1.1-0.9,1.4"/>
<path class="st0" d="M69.2,55.9c0,0.8,0.3,1.6,0.8,2.3c2.3,4.4,5,8.6,8.1,12.5c0.6,0.8,1.7,1.2,2.1,2.2"/>
<path class="st0" d="M75.5,135.6c0.1,1,0,1.9-0.4,2.8c-0.8,2.1-1,4.4-1.6,6.6c-0.5,1.9-0.2,3.9-0.9,5.9c-0.3,0.9,0.6,1.8,1.4,2.4"/>
<path class="st0" d="M90,113.1c1,4.9,3,9.6,5.7,13.8"/>
<path class="st0" d="M48,139c-0.4,1.4-1,2.8-1.8,4c-2.9,3.6-6.7,6.1-10.7,8.3c-0.5,0.2-1,0.3-1.5,0.3c-1.2,0.2-2.4,0.8-3.2,1.8
	c-0.4,0.4-0.8,0.8-1.3,1.2"/>
<path class="st0" d="M56.1,52c-0.9,1.7-0.6,3.5-0.9,5.3c0,0.1-0.1,0.1,0,0.3c1.5,1.7,0.6,3.7,0.5,5.6c-0.2,2.4-0.6,4.8-1.2,7.1
	c-0.1,0.5-0.1,1,0.1,1.4"/>
<path class="st0" d="M122.9,132.6c2.9,2.9,3.9,6.5,4,10.5c0,1,0.2,1.9,0.6,2.9"/>
<path class="st0" d="M87.2,69.9c0.3,3.5,0.1,6.9-0.4,10.4c0,0.3,0,0.6,0,0.9c0.2,1.2-0.3,1.6-1.5,1.3c-0.4-0.1-0.9,0-1.3,0.1
	c-0.5,0.3-1.1,0.3-1.6,0c-0.3-0.2-1.1-0.3-1.1,0.5c0,1.9-1.1,2.6-2.8,3"/>
<path class="st0" d="M64.4,55.9c0,2.6-1.3,4.6-2.5,6.7c-1,1.8-2.1,3.5-3.5,5.1c-0.3,0.4-0.3,0.8-0.4,1.2c-0.2,0.6-0.4,1.3-1.3,1.6
	c-0.9,0.4-1.8,1-2.6,1.6"/>
<path class="st0" d="M6.8,71.2c0.3,1.8,0.9,3.6,1.7,5.3c1,2.3,2.2,4.6,3.5,6.7c0.3,0.6,0.8,1.2,0.4,1.9"/>
<path class="st0" d="M78.1,86.7c0.4-1.4,0.6-2.8,0.7-4.3c-0.1-2.2-0.9-4.3-2.2-6.1c-0.8-1.3-2-2.3-3.5-2.9"/>
<path class="st0" d="M55.5,132.8c0.6,1,1.5,1.7,2.6,2.2c1.6,0.8,2.1,2.4,2.7,3.9c0.1,0.3,0.3,0.7,0.6,0.9c3.8,3.2,7.2,6.7,10.2,10.6
	c0.3,0.3,0.6,0.5,0.9,0.7"/>
<path class="st0" d="M19,65.8c-0.9,1.5-0.8,3.2-1,4.8c-0.2,1.9-0.3,3.8-0.3,5.7c0,1.2,0.1,2.3,0.3,3.5c0.1,0.6,0,1.2-0.3,1.7"/>
<path class="st0" d="M75.8,50.2c0.9,1.9,1.5,4,2.4,5.9s0.6,4,1,6c0.4,2.7,0.7,5.4,0.8,8.1c0.1,0.6,0,1.2-0.3,1.8"/>
<path class="st0" d="M88.1,89.5c0.5,1.5,0.5,3.2-0.1,4.6c-0.4,2.2-1.3,4.4-2.5,6.2c-0.2,0.3-0.4,0.6-0.4,0.9c0.1,2.4-2,2.9-3.4,4
	c-0.2,0.1-0.3,0.2-0.5,0.3"/>
<path class="st0" d="M47.8,142.5c-0.9,0.6-0.6,1.5-0.8,2.3c-0.8,3.2-1.3,6.4-1.4,9.7"/>
<path class="st0" d="M26.8,60.4c0.6,1.5-0.5,2.5-1.1,3.6c-1.4,2.6-3.1,5-4.6,7.5c-0.3,0.5-0.8,0.6-1.1,1"/>
<path class="st0" d="M22.7,107.5c0.7,1,0.4,2.2,0.9,3.2c1.1,2.2,2.5,4.3,4.2,6.2c1.2,1.4,2,3.1,2.1,5c0.4,3.2-0.2,6.3-0.1,9.5
	c0,0.1-0.2,0.3-0.3,0.4"/>
<path class="st0" d="M28.2,75c-0.1,0-0.2,0-0.3,0c-2,1.6-3.6,3.4-3.9,6.1c-0.3,2-0.3,4,0,6c0,0.2-0.2,0.4-0.2,0.6"/>
<path class="st0" d="M84.9,103.3c0.7,0.9,0.6,2.2-0.2,3c-1.6,2.7-3.7,5-6.2,6.8c-0.5,0.2-0.9,0.7-0.9,1.3"/>
<path class="st0" d="M20.1,92.1c-0.4,0.7-0.4,1.6-0.1,2.3c0.6,2.4,1,4.7,1.2,7.1c0.2,1.2,0.6,2.3,1,3.5c0.3,1.1,0.4,2.3,0.2,3.4"/>
<path class="st0" d="M36.2,85.3c0,2.3-0.7,4.5-1.9,6.3c-0.7,1-1.3,1.2-2.6,0.6C31.1,92,30.3,91.8,30,91"/>
<path class="st0" d="M117.5,142.1c1.2,4.1,2.7,8.1,1.3,12.4"/>
<path class="st0" d="M100.4,99.5c-1.2,0.4-1.4,1.9-2.5,2.4c-1.6,0.9-1.8,2.6-2.4,4.1c-1,2.9-3,5.3-5.6,6.8c-1.7,0.9-3.4,1.5-5.3,1.8
	c-1.1,0.3-2.2,0.2-3.2-0.1"/>
<path class="st0" d="M69.2,66.9c-2.9,0.1-5.8,0.1-8.6,1.3c-0.8,0.3-1.4,1.2-2.4,1.1"/>
<path class="st0" d="M93.4,116.5c-0.1,2.8,1.4,5,2.5,7.4c1,2.1,2.1,4.1,2.9,6.2c0.4,0.9,0.8,1.9,2.2,1.7"/>
<path class="st0" d="M43.4,141.7c-2.7,3-5.6,5.9-8.7,8.6c-0.4,0.4-1,0.6-1,1.3"/>
<path class="st0" d="M85.8,82.9c-0.2,1.8-0.7,3.5-1.4,5.2c-0.4,1.2-1,2.4-1.6,3.6c-0.3,0.5-0.1,0.9-0.1,1.3"/>
<path class="st0" d="M88.6,134.6c0.6,0.1,0.5,0.6,0.5,1c0,2.4,0.1,4.8,0.1,7.2c0,0.9,0.4,1.9-0.1,2.9"/>
<path class="st0" d="M21.8,110.6c0.4,2.6,1.3,5.1,2.6,7.4c0.3,0.9,0.7,1.7,1.2,2.5c-0.6,0.9-1.5,0.6-2.2,0.3c-2.6-1.2-4.8-3-6.5-5.3
	c-0.5-0.7-1.1-1.3-1.8-1.8c-0.4-0.3-0.5-1.2-0.6-1.9c-0.3-1.4-0.5-2.8-0.6-4.1"/>
<path class="st0" d="M35.8,60.4c-0.7,1.4-0.1,2.9,0,4.3c0.2,1.8,0.8,3.5,0.6,5.3"/>
<path class="st0" d="M93.5,85.3c0.7,0.7,1,1.7,1,2.7c0.2,1.8,0.5,3.6,0.9,5.3c0.6,2.7,0.9,5.4,1.1,8.2c0,0.4,0.1,0.8,0.3,1.2"/>
<path class="st0" d="M80.5,133.4c-0.3,2.4-0.7,4.7-0.9,7.1c-0.1,0.7-0.6,1.4-0.2,2.2"/>
<path class="st0" d="M30.6,59.5c0.1,1.1,0.4,2.2,0.9,3.2c0.7,2.1,1.7,4.1,3,5.9c1,1.5,2.7,2.4,4.5,2.4"/>
<path class="st0" d="M88.6,146.7c-1.1,0.3-1.4,1.3-1.9,2.1c-1.3,2.2-3.4,3.7-5,5.6c-0.1,0.1-0.3,0-0.5,0"/>
<path class="st0" d="M78.1,56.7c-0.9,0.3-1.9,0.3-2.7-0.1c-2-0.5-3.9-0.8-5.9-0.9c-0.9,0-1.7-0.2-2.6-0.2c-3.3,0-6.6,0.7-9.6,2.1
	c-0.5,0.3-1.1,0.4-1.7,0.4"/>
<path class="st0" d="M31.7,88.9c-1.2-0.4-1.2-0.4-2.8-3.2c-1.1,0.9-1,2.2,0.4,4.1"/>
<path class="st0" d="M55,144.7c-0.8,1.6,0.2,3.2,0.3,4.8c0.1,0.6,0.3,1.2,0.5,1.8c0.2,0.6,0.3,1.5,0.6,1.7c0.5,0.4,1,0.7,1.1,1.4
	c0.1,0.3,0.7,0.1,1,0.1"/>
<path class="st0" d="M14.6,73.1c0.5,2.7,1.4,5.4,2,8c0.2,0.9-0.2,1.9,0.2,3h-1.6"/>
<path class="st0" d="M126.9,145.4c-0.4,1-0.4,2.2-0.7,3.2c-0.5,1.8-1.4,3.6-2.6,5.1c-0.2,0.3-0.1,1-0.8,0.8"/>
<path class="st0" d="M88.7,145.2c0.3,3.1,0.4,6.2,0.1,9.3"/>
<path class="st0" d="M32.6,126.8c0.2,2.3-1.1,4.2-2,6.2c-0.1,0.5-0.5,0.9-1,1"/>
<path class="st0" d="M84.6,115c-0.7,1.8-1.8,3.3-2.3,5.2c-0.2,0.8-0.6,1.6-0.8,2.3"/>
<path class="st0" d="M87.6,114.1c0.3,1,0.5,2,0.8,3c0.3,0.8,0,1.8-0.7,2.3c-1.2,1.2-2.1,2.8-2.5,4.5c-0.3,0.7-0.8,1.3-1.4,1.7
	c-1.1,0.7-1.6,2.1-1.9,3.5c-0.4,1.4-0.3,2.8-1.3,3.9"/>
<path class="st0" d="M127.1,128.1c2.3,0.5,4.6,0.5,6.7,1.5c0.1,0.1,0.4-0.1,0.6-0.1"/>
<path class="st0" d="M21.6,103.5c-0.7,2.2-0.7,4.5,0,6.7"/>
<path class="st0" d="M35.2,53.3c-0.3,2.2,0.6,4.3,0.3,6.5"/>
<path class="st0" d="M119.8,67.8c0.1,0.5,0.2,0.9,0.3,1.4c0.1,0.4,1.1-0.2,0.9,0.8c0,0.4,0,0.9,0.1,1.3c0.3,1.4,0.4,2.8,0.5,4.3"/>
<path class="st0" d="M43.3,94.5c-0.8,2.2,0.2,4.2,0.7,6.2"/>
<path class="st0" d="M96.4,98.6c1.5-0.3,1.4-1.8,1.9-2.7c1.2-2.4-0.3-5.6-2.8-6.7c-0.2,0-0.3,0-0.5,0"/>
<path class="st0" d="M95.9,78.8c-0.8,1.6-1.7,3.1-2.7,4.6c-0.3,0.4-0.6,0.9,0,1.4"/>
<path class="st0" d="M102,86.8c-0.9,0.2-1.2-0.8-1.7-1.2c-1.2-1.1-2-1.2-3.1-0.1c-0.8,0.7-1.6,1.3-2.5,1.8"/>
<path class="st0" d="M21.4,79c0.4,0.7,0.3,1.6-0.2,2.2c-0.5,0.5-0.6,1.4-0.2,2c0.5,0.8,0.2,1.7,0.3,2.6c0.1,0.8,0.4,1.5,1,2
	c0.8-0.6,1.5-0.2,2,0.7"/>
<path class="st0" d="M3.2,57.7c-0.4,1.9-0.4,3.8,0,5.7"/>
<path class="st0" d="M83.6,76.3c-0.6,0.8-1.5,0.8-2.3,0.8c-0.6,0-0.8,0.4-0.8,0.8c0.3,1.5,0.5,3.1,2.3,3.6c0.5,0.1,1,0.4,1.3,0.9"/>
<path class="st0" d="M51.5,134.1c0,0.4,0.1,0.7,0.1,1c-0.1,1.4,0.7,2.7,1.9,3.2c0.6,0.4,1.2,0.8,1.7,1.4c0.5,0.6,1.2,0.9,2,1"/>
<path class="st0" d="M12,143.6c-0.3,1.8-0.3,3.6,0,5.4"/>
<path class="st0" d="M15.9,90c-0.5,1.6-1,3.1-1.6,4.6c-0.1,0.3-0.1,0.5-0.1,0.8"/>
<path class="st0" d="M60.7,139.2c-1.1,0.1-2.1-0.8-3.3-0.2c-0.3,1-0.2,2,0.3,2.9c0.6,1.5,1.3,2.9,2.2,4.3"/>
<path class="st0" d="M80.5,121.3c-0.5,1.9,0.2,3.7,0.9,5.4c0.1,0.4,0.4,0.8,0.7,1.1"/>
<path class="st0" d="M92.8,84.9c-1.7,1.3-3.2,2.9-4.7,4.4c-1.9,2-4.3,3.6-6.8,4.7"/>
<path class="st0" d="M21.6,55c-0.2,1.5-0.6,3-1.4,4.3c-1,1.3-1.3,2.9-0.9,4.5"/>
<path class="st0" d="M29.2,59.1c-1.4,0.7-2.8,1.5-4.5,1.1c-0.9,0-1.8,0.4-2.4,1.1c-0.7,1-1.8,1.4-2.5,2.4"/>
<path class="st0" d="M72.4,94.2c0-0.3,0-0.6,0-0.9c0.1-0.7-0.4-0.8-0.9-0.8c-0.2,0-0.4,0.2-0.5,0.2c-1.3,0.6-2.7,0.9-4.1,0.7
	c-0.9-0.2-1.8,0.2-2.2,1"/>
<path class="st0" d="M81.8,72.3c-0.9,0.6-2.1,0.6-3,1.5c0.8,1,0.7,2.4,1.8,3.2"/>
<path class="st0" d="M2.8,78.7c0.6,1.8,1.4,3.5,2.3,5.2"/>
<path class="st0" d="M84.4,125.5c0.1,0.3,0.3,0.6,0.2,0.8c-0.5,1.5-0.1,2.9-0.2,4.4"/>
<path class="st0" d="M34.5,68.8c-0.3,0.1-0.6,0.3-0.8,0.2c-1.5-0.4-2.9,0.1-4.3,0.3"/>
<path class="st0" d="M100.4,20.9l4.9,4.4"/>
<path class="st0" d="M16.8,84.2c1.3,2.1,2.7,4.1,4,6.2c0.1,0.4,0.2,0.8,0.2,1.1"/>
<path class="st0" d="M103.5,1c1.5,0.4,3.1,0.4,4.7,0"/>
<path class="st0" d="M11.4,85.1c1.2-0.1,2.3,0.5,3,1.4c1.1,1.5,2.8,2.5,4.2,3.8l1.2,1.2c0.1,0.1,0.3,0.4,0.3,0.4
	c1.5-0.4,2,1.1,3,1.6"/>
<path class="st0" d="M19.5,64c-0.2,0.4-0.5,0.9-0.2,1.3c0.9,1.2,0.6,2.5,0.5,3.8c-0.2,1-0.1,2.1,0.2,3.1"/>
<path class="st0" d="M89.3,126c0.6-0.5,0.6-0.5,1.3-0.3l3.1,1.2"/>
<path class="st0" d="M66.7,51.1c0.9,1.2,1.4,2.6,1.6,4.1"/>
<path class="st0" d="M88.6,118.5c0.6,0.9,0.7,2.1,0.3,3.1c-0.5,1.4-0.4,2.9,0.3,4.1"/>
<path class="st0" d="M6.4,76.1c0.3,1.5,1,2.8,1.9,4"/>
<path class="st0" d="M25.7,61.2c-1.3,0.4-2.4,1.3-3.9,1.2"/>
<path class="st0" d="M20.7,58.8c0.6,0.8,0.2,1.6,0,2.3c-0.1,0.5-0.1,1,0.1,1.4"/>
<path class="st0" d="M33.6,86.9c-0.4,0.7-0.6,1.5-0.5,2.3c0.1,0.5-0.2,1-0.7,1.2c-0.9-1-0.9-2.6,0-4.1c0.1,0,0.3,0,0.4,0
	c2,0.9,2,0.9,2.8-1.2"/>
<path class="st0" d="M15.2,113.9c-0.3,0.7-0.3,1.4,0,2.1c0.3,0.5,0.3,1.1,0,1.6"/>
<path class="st0" d="M99.2,79.2c0.4,1.2-0.1,2.4,0.3,3.6"/>
<path class="st0" d="M1,73.5l1,3.6"/>
<path class="st0" d="M74.8,114.8h6.3"/>
<path class="st0" d="M103.4,73.9c-0.6,1.1-0.2,2.2-0.1,3.4c0,0,0.1,0,0.1,0c0.1,0,0.1-0.1,0.1-0.1"/>
<path class="st0" d="M95.2,127.5c-1.1-0.4-2.3,0.2-3.4-0.4"/>
<path class="st0" d="M128.5,98.2c1,1.2,2.1,2.3,3.2,3.2"/>
<path class="st0" d="M57.2,132.1c0.4,0.8,1.2,1.3,1.6,2.2c0.1,0.3,0.4,0.6,0.1,1"/>
<path class="st0" d="M13.7,115.4c0.9,0.9,0.1,1.8-0.1,2.6c-0.1,0.7-0.2,1.4-0.2,2.1"/>
<path class="st0" d="M49,134.1c-0.8,2,0,3,2.7,2.7"/>
<path class="st0" d="M68.8,84.3c0.3,1,0.2,2.2-0.2,3.2c-1.1-0.3-1.1-1.1-1.1-1.9c0.1-1.1,0.4-1.3,2.2-1.7c0.7,0.5,0.3,1.3,0.4,1.9"
	/>
<path class="st0" d="M35,93.3c0.4,0.3,1,0.1,1.3,0.6c-0.2,0.8-0.9,1.5-1.7,1.5c-0.9,0-1.7,0.4-2.4,0.9c-0.5,0.5-0.8-0.4-1.3-0.2
	c-0.6,0.1-1.3,0.1-1.9,0"/>
<path class="st0" d="M78.8,131.7c-1.3,0.7-2.2,2-2.3,3.5c-0.1,0.4-0.3,0.7-0.5,1"/>
<path class="st0" d="M96.9,86.2c0.5,1.4,0.9,2.9,2.5,3.6"/>
<path class="st0" d="M20.7,74.8c0.7,0.8,1.8,0.3,2.5,0.9"/>
<path class="st0" d="M6.7,68.6c-0.1,0.8,0.3,1.6,0,2.5c0,0-0.1,0-0.1,0c-0.1,0-0.1-0.1-0.1-0.1"/>
<path class="st0" d="M20.5,82.5c-1.1,0.2-1.9,1.2-1.7,2.4c0,0.1,0,0.2,0.1,0.3c0.2,0.6-0.2,1-0.3,1.5"/>
<path class="st0" d="M48.5,136.4c-0.5,0.7-0.7,1.6-0.4,2.5c0,0,0.1,0,0.1,0c0,0,0.1-0.1,0.1-0.1"/>
<path class="st0" d="M171.5,139.8c0.6,0.7,0.1,1.6,0.1,2.3"/>
<path class="st0" d="M50.6,139.1c-0.7,0.8-1.8,0.9-2.2,1.9c-0.6-0.2-0.2-0.7-0.5-1"/>
<path class="st0" d="M120.6,67c0,0.7,0.1,1.5,0.1,2.2"/>
<path class="st0" d="M63.6,92c0.3,0.9,1.6,0.6,1.8,1.7"/>
<path class="st0" d="M79.3,119.6c-0.3,0.7,0.1,1.4,0.3,2.1"/>
<path class="st0" d="M78.9,118.3c0.3,0.5,0.4,1.1,1,1.4c0.5,0.3,0.8,0.8,1,1.3"/>
<path class="st0" d="M8.8,79.7c-0.3,0.9,0.3,1.8,1.1,2c0.1,0,0.1,0,0.2,0"/>
<path class="st0" d="M5.9,68.8c0.3,0.6,0,1.3,0.4,1.8"/>
<path class="st0" d="M84,129.1c-0.3,0.6-0.1,1.2-0.1,1.8"/>
<path class="st0" d="M89.1,121.8c0.1,0.5,0.2,1.1,0.1,1.7"/>
<path class="st0" d="M105.5,25.6l1.2,1.6"/>
<path class="st0" d="M14.4,117c0.8,0.6,1.6,1.3,2.2,2.1"/>
<path class="st0" d="M12.6,84.2c0.8-0.2,1,0.8,1.6,0.9"/>
<path class="st0" d="M27.1,94.7c1.7,0.8,1.9,1.3,1,2.3"/>
<path class="st0" d="M33.4,152c-0.1,0.5-0.5,1-1,1.2"/>
<path class="st0" d="M80,121.1c-0.2,0.8-0.3,1.5,0.9,1.4c0.3,0,0.7-0.2,0.6,0.4"/>
<path class="st0" d="M34.6,53c0.1,0.4-0.2,0.9,0.1,1.3"/>
<path class="st0" d="M98.7,129.1c0.5,0,1,0.3,1.2,0.8"/>
<path class="st0" d="M48.6,137.2c-0.1,0.4,0.1,0.9-0.1,1.3"/>
<path class="st0" d="M171.2,139.8c-0.3,0.4-0.1,0.9-0.1,1.3"/>
<path class="st0" d="M74.8,91.1c-0.9,0.4-1.9,0.4-2.7-0.1"/>
<path class="st0" d="M79.8,141.6c0.3,0.3,0.1,0.7,0.1,1"/>
<path class="st0" d="M9.3,81.6c-0.2,0.5,0.5,0.5,0.5,0.9"/>
<path class="st0" d="M103.8,75.8c-0.1,0.3,0.1,0.7-0.1,1"/>
<path class="st0" d="M98.5,88.9l0.9,0.1"/>
<path class="st0" d="M47.5,133.4l-0.9,0.1"/>
<path class="st0" d="M50.2,135.9l-0.9,0.1"/>
<path class="st0" d="M44.6,110.9c0.8,0.7-0.3,0.9-0.4,1.4"/>
<path class="st0" d="M31.1,75.3c-2.9,1.2-4.7,4.1-4.5,7.3c0,0.6,0.2,1,0.9,1.1c1.8,0.2,3.6-0.7,4.4-2.4c0.5-0.9,0.8-1.9,1.2-2.9
	c0.4-1.3-0.3-2.7-1.6-3.1c-0.1,0-0.1,0-0.2,0"/>
</svg>
